<svg width="57" height="57" viewBox="0 0 57 57" fill="none" xmlns="http://www.w3.org/2000/svg">
<rect width="57" height="57" rx="1" fill="#890610"/>
<path d="M31.2726 39.2712L36.9948 33.4757L15.6268 12.0322L9.97697 11.0904C9.32507 10.9455 8.7456 11.5251 8.89047 12.1771L9.83211 17.8277L31.2726 39.2712ZM45.6145 44.5596L41.2685 40.213L43.5863 35.9388C43.8036 35.5041 43.7312 34.9246 43.369 34.5623L42.1377 33.3308C41.6306 32.8961 40.9063 32.8961 40.4717 33.3308L31.1277 42.6761C30.6931 43.1832 30.6931 43.9076 31.1277 44.3423L32.3591 45.5739C32.6488 45.9361 33.3007 46.081 33.7353 45.7912L37.9365 43.5454L42.2825 47.8196C42.7171 48.2543 43.4415 48.2543 43.8761 47.8196L45.5421 46.1534C46.0491 45.7187 46.0491 44.9943 45.6145 44.5596ZM44.9626 17.8277L45.9042 12.1771C46.0491 11.5251 45.4696 10.9455 44.8177 11.0904L39.1679 12.0322L29.0995 22.1744L34.8218 27.9699L44.9626 17.8277ZM19.9729 31.2299L16.1339 35.0694L14.323 33.3308C13.8884 32.8961 13.0916 32.8961 12.657 33.3308L11.4257 34.5623C11.1359 34.9246 10.9911 35.5041 11.2084 35.9388L13.5262 40.213L9.1802 44.5596C8.7456 44.9943 8.7456 45.7187 9.1802 46.1534L10.8462 47.8196C11.2808 48.2543 12.0051 48.2543 12.5122 47.8196L16.7858 43.5454L20.9869 45.7912C21.4215 46.081 22.001 45.9361 22.3632 45.5739L23.5946 44.3423C24.0292 43.9076 24.0292 43.1108 23.5946 42.6761L21.8561 40.9374L25.6951 37.0254L19.9729 31.2299Z" fill="#540000"/>
<path d="M31.0411 37.5874L36.4217 32.1379L16.3294 11.9746L11.0169 11.0891C10.4039 10.9528 9.85902 11.4978 9.99524 12.1108L10.8807 17.4241L31.0411 37.5874ZM44.5268 42.5601L40.4402 38.473L42.6197 34.4539C42.824 34.0452 42.7559 33.5003 42.4154 33.1597L41.2575 32.0017C40.7808 31.5929 40.0997 31.5929 39.691 32.0017L30.9049 40.789C30.4962 41.2659 30.4962 41.9471 30.9049 42.3558L32.0627 43.5138C32.3352 43.8544 32.9482 43.9906 33.3568 43.7182L37.3072 41.6065L41.3937 45.6255C41.8024 46.0342 42.4835 46.0342 42.8922 45.6255L44.4587 44.0588C44.9354 43.65 44.9354 42.9689 44.5268 42.5601ZM43.9138 17.4241L44.7992 12.1108C44.9354 11.4978 44.3906 10.9528 43.7776 11.0891L38.465 11.9746L28.9978 21.5113L34.3785 26.9608L43.9138 17.4241ZM20.416 30.0262L16.8062 33.6365L15.1035 32.0017C14.6948 31.5929 13.9456 31.5929 13.5369 32.0017L12.3791 33.1597C12.1066 33.5003 11.9704 34.0452 12.1747 34.4539L14.3542 38.473L10.2677 42.5601C9.85902 42.9689 9.85902 43.65 10.2677 44.0588L11.8342 45.6255C12.2429 46.0342 12.9239 46.0342 13.4007 45.6255L17.4192 41.6065L21.3695 43.7182C21.7782 43.9906 22.3231 43.8544 22.6636 43.5138L23.8215 42.3558C24.2301 41.9471 24.2301 41.1978 23.8215 40.789L22.1868 39.1542L25.7967 35.4757L20.416 30.0262Z" fill="white"/>
</svg>
