<svg width="177" height="57" viewBox="0 0 177 57" fill="none" xmlns="http://www.w3.org/2000/svg">
<rect width="57" height="57" rx="1" fill="#890610"/>
<path d="M31.2726 39.2712L36.9948 33.4757L15.6268 12.0322L9.97697 11.0904C9.32507 10.9455 8.7456 11.5251 8.89047 12.1771L9.83211 17.8277L31.2726 39.2712ZM45.6145 44.5596L41.2685 40.213L43.5863 35.9388C43.8036 35.5041 43.7312 34.9246 43.369 34.5623L42.1377 33.3308C41.6306 32.8961 40.9063 32.8961 40.4717 33.3308L31.1277 42.6761C30.6931 43.1832 30.6931 43.9076 31.1277 44.3423L32.3591 45.5739C32.6488 45.9361 33.3007 46.081 33.7353 45.7912L37.9365 43.5454L42.2825 47.8196C42.7171 48.2543 43.4415 48.2543 43.8761 47.8196L45.5421 46.1534C46.0491 45.7187 46.0491 44.9943 45.6145 44.5596ZM44.9626 17.8277L45.9042 12.1771C46.0491 11.5251 45.4696 10.9455 44.8177 11.0904L39.1679 12.0322L29.0995 22.1744L34.8218 27.9699L44.9626 17.8277ZM19.9729 31.2299L16.1339 35.0694L14.323 33.3308C13.8884 32.8961 13.0916 32.8961 12.657 33.3308L11.4257 34.5623C11.1359 34.9246 10.9911 35.5041 11.2084 35.9388L13.5262 40.213L9.1802 44.5596C8.7456 44.9943 8.7456 45.7187 9.1802 46.1534L10.8462 47.8196C11.2808 48.2543 12.0051 48.2543 12.5122 47.8196L16.7858 43.5454L20.9869 45.7912C21.4215 46.081 22.001 45.9361 22.3632 45.5739L23.5946 44.3423C24.0292 43.9076 24.0292 43.1108 23.5946 42.6761L21.8561 40.9374L25.6951 37.0254L19.9729 31.2299Z" fill="#540000"/>
<path d="M31.0411 37.5874L36.4217 32.1379L16.3294 11.9746L11.0169 11.0891C10.4039 10.9528 9.85902 11.4978 9.99524 12.1108L10.8807 17.4241L31.0411 37.5874ZM44.5268 42.5601L40.4402 38.473L42.6197 34.4539C42.824 34.0452 42.7559 33.5003 42.4154 33.1597L41.2575 32.0017C40.7808 31.5929 40.0997 31.5929 39.691 32.0017L30.9049 40.789C30.4962 41.2659 30.4962 41.9471 30.9049 42.3558L32.0627 43.5138C32.3352 43.8544 32.9482 43.9906 33.3568 43.7182L37.3072 41.6065L41.3937 45.6255C41.8024 46.0342 42.4835 46.0342 42.8922 45.6255L44.4587 44.0588C44.9354 43.65 44.9354 42.9689 44.5268 42.5601ZM43.9138 17.4241L44.7992 12.1108C44.9354 11.4978 44.3906 10.9528 43.7776 11.0891L38.465 11.9746L28.9978 21.5113L34.3785 26.9608L43.9138 17.4241ZM20.416 30.0262L16.8062 33.6365L15.1035 32.0017C14.6948 31.5929 13.9456 31.5929 13.5369 32.0017L12.3791 33.1597C12.1066 33.5003 11.9704 34.0452 12.1747 34.4539L14.3542 38.473L10.2677 42.5601C9.85902 42.9689 9.85902 43.65 10.2677 44.0588L11.8342 45.6255C12.2429 46.0342 12.9239 46.0342 13.4007 45.6255L17.4192 41.6065L21.3695 43.7182C21.7782 43.9906 22.3231 43.8544 22.6636 43.5138L23.8215 42.3558C24.2301 41.9471 24.2301 41.1978 23.8215 40.789L22.1868 39.1542L25.7967 35.4757L20.416 30.0262Z" fill="white"/>
<path d="M78.9217 4H82.5657V23.7702H78.9217V15.342H74.8024V23.7702H71.1584V4H74.8024V12.5849H78.9217V4Z" fill="white"/>
<path d="M93.8163 23.7702L93.0558 19.6658H88.683L87.9859 23.7702H84.3419L88.3662 4H93.2777L97.492 23.7702H93.8163ZM89.1583 16.9399H92.5489L90.8061 7.47781L89.1583 16.9399Z" fill="white"/>
<path d="M102.9 16.0627V23.7702H99.2558V4H106.607C108.91 4 110.061 5.03394 110.061 7.10183V12.9608C110.061 14.6736 109.29 15.6762 107.748 15.9687L111.075 23.7702H107.146L104.104 16.0627H102.9ZM102.9 6.75718V13.3995H105.53C105.868 13.3995 106.1 13.3473 106.227 13.2428C106.354 13.1175 106.417 12.8877 106.417 12.5535V7.60313C106.417 7.26893 106.354 7.04961 106.227 6.94517C106.1 6.81984 105.868 6.75718 105.53 6.75718H102.9Z" fill="white"/>
<path d="M113.03 4H120.635C122.937 4 124.088 5.03394 124.088 7.10183V20.6684C124.088 22.7363 122.937 23.7702 120.635 23.7702H113.03V4ZM120.413 20.2924V7.47781C120.413 7.1436 120.349 6.92428 120.223 6.81984C120.096 6.69452 119.864 6.63185 119.526 6.63185H116.674V21.1384H119.526C119.864 21.1384 120.096 21.0862 120.223 20.9817C120.349 20.8564 120.413 20.6266 120.413 20.2924Z" fill="white"/>
<path d="M137.47 10.5483H133.794V7.47781C133.794 7.1436 133.73 6.92428 133.604 6.81984C133.477 6.69452 133.245 6.63185 132.907 6.63185H131.417C131.079 6.63185 130.847 6.69452 130.72 6.81984C130.593 6.92428 130.53 7.1436 130.53 7.47781V20.3238C130.53 20.658 130.593 20.8877 130.72 21.0131C130.847 21.1175 131.079 21.1697 131.417 21.1697H132.907C133.245 21.1697 133.477 21.1175 133.604 21.0131C133.73 20.8877 133.794 20.658 133.794 20.3238V17.3159H137.47V20.6997C137.47 22.7676 136.318 23.8016 134.016 23.8016H130.308C128.006 23.8016 126.854 22.7676 126.854 20.6997V7.10183C126.854 5.03394 128.006 4 130.308 4H134.016C136.318 4 137.47 5.03394 137.47 7.10183V10.5483Z" fill="white"/>
<path d="M143.368 4H147.233C149.536 4 150.687 5.03394 150.687 7.10183V20.6684C150.687 22.7363 149.536 23.7702 147.233 23.7702H143.368C141.065 23.7702 139.914 22.7363 139.914 20.6684V7.10183C139.914 5.03394 141.065 4 143.368 4ZM147.043 20.1671V7.60313C147.043 7.26893 146.98 7.04961 146.853 6.94517C146.726 6.81984 146.494 6.75718 146.156 6.75718H144.477C144.117 6.75718 143.875 6.81984 143.748 6.94517C143.621 7.04961 143.558 7.26893 143.558 7.60313V20.1671C143.558 20.5013 143.621 20.7311 143.748 20.8564C143.875 20.9608 144.117 21.0131 144.477 21.0131H146.156C146.494 21.0131 146.726 20.9608 146.853 20.8564C146.98 20.7311 147.043 20.5013 147.043 20.1671Z" fill="white"/>
<path d="M157.269 16.0627V23.7702H153.625V4H160.976C163.279 4 164.43 5.03394 164.43 7.10183V12.9608C164.43 14.6736 163.659 15.6762 162.117 15.9687L165.444 23.7702H161.515L158.473 16.0627H157.269ZM157.269 6.75718V13.3995H159.899C160.237 13.3995 160.469 13.3473 160.596 13.2428C160.723 13.1175 160.786 12.8877 160.786 12.5535V7.60313C160.786 7.26893 160.723 7.04961 160.596 6.94517C160.469 6.81984 160.237 6.75718 159.899 6.75718H157.269Z" fill="white"/>
<path d="M170.916 21.0131H177V23.7702H167.24V4H176.746V6.75718H170.916V12.2402H175.828V15.0287H170.916V21.0131Z" fill="white"/>
<path d="M81.6151 38.2768H77.9394V35.6762C77.9394 35.342 77.8761 35.1227 77.7493 35.0183C77.6226 34.893 77.3902 34.8303 77.0522 34.8303H75.5629C75.2249 34.8303 74.9926 34.893 74.8658 35.0183C74.7391 35.1227 74.6757 35.342 74.6757 35.6762V48.5222C74.6757 48.8564 74.7391 49.0862 74.8658 49.2115C74.9926 49.3159 75.2249 49.3681 75.5629 49.3681H77.0522C77.3902 49.3681 77.6226 49.3159 77.7493 49.2115C77.8761 49.0862 77.9394 48.8564 77.9394 48.5222V44.1358H76.3551V41.5979H81.6151V48.8982C81.6151 50.9661 80.4638 52 78.1612 52H74.4539C72.1513 52 71 50.9661 71 48.8982V35.3003C71 33.2324 72.1513 32.1984 74.4539 32.1984H78.1612C80.4638 32.1984 81.6151 33.2324 81.6151 35.3003V38.2768Z" fill="#757575"/>
<path d="M91.4386 32.1984H95.0826V48.8668C95.0826 50.9347 93.9313 51.9687 91.6287 51.9687H87.7629C85.4603 51.9687 84.309 50.9347 84.309 48.8668V32.1984H87.953V48.3655C87.953 48.6997 88.0164 48.9295 88.1431 49.0548C88.2699 49.1593 88.5022 49.2115 88.8402 49.2115H90.5197C90.8788 49.2115 91.1217 49.1593 91.2484 49.0548C91.3752 48.9295 91.4386 48.6997 91.4386 48.3655V32.1984Z" fill="#757575"/>
<path d="M98.2701 32.1984H101.914V51.9687H98.2701V32.1984Z" fill="#757575"/>
<path d="M105.294 32.1984H112.899C115.201 32.1984 116.352 33.2324 116.352 35.3003V48.8668C116.352 50.9347 115.201 51.9687 112.899 51.9687H105.294V32.1984ZM112.677 48.4909V35.6762C112.677 35.342 112.613 35.1227 112.487 35.0183C112.36 34.893 112.128 34.8303 111.79 34.8303H108.938V49.3368H111.79C112.128 49.3368 112.36 49.2846 112.487 49.1802C112.613 49.0548 112.677 48.8251 112.677 48.4909Z" fill="#757575"/>
<path d="M122.952 49.2115H129.036V51.9687H119.277V32.1984H128.783V34.9556H122.952V40.4386H127.864V43.2272H122.952V49.2115Z" fill="#757575"/>
<path d="M137.466 48.3655V44.1358C137.466 43.8016 137.402 43.5822 137.276 43.4778C137.149 43.3525 136.917 43.2898 136.579 43.2898H134.012C131.836 43.2898 130.748 42.2454 130.748 40.1567V35.3003C130.748 33.2324 131.889 32.1984 134.17 32.1984H137.656C139.937 32.1984 141.078 33.2324 141.078 35.3003V38.0574H137.402V35.8016C137.402 35.4674 137.339 35.248 137.212 35.1436C137.086 35.0183 136.853 34.9556 136.515 34.9556H135.311C134.952 34.9556 134.709 35.0183 134.582 35.1436C134.456 35.248 134.392 35.4674 134.392 35.8016V39.7807C134.392 40.1149 134.456 40.3446 134.582 40.47C134.709 40.5744 134.952 40.6266 135.311 40.6266H137.814C140.032 40.6266 141.142 41.6501 141.142 43.6971V48.8668C141.142 50.9347 139.99 51.9687 137.688 51.9687H134.265C131.963 51.9687 130.812 50.9347 130.812 48.8668V46.141H134.456V48.3655C134.456 48.6997 134.519 48.9295 134.646 49.0548C134.772 49.1593 135.015 49.2115 135.374 49.2115H136.579C136.917 49.2115 137.149 49.1593 137.276 49.0548C137.402 48.9295 137.466 48.6997 137.466 48.3655Z" fill="#757575"/>
</svg>
