<svg width="126" height="38" viewBox="0 0 126 38" fill="none" xmlns="http://www.w3.org/2000/svg">
<rect width="32" height="32" rx="1" fill="#890610"/>
<path d="M17.5565 22.047L20.7691 18.7934L8.77297 6.7549L5.60113 6.22619C5.23515 6.14485 4.90983 6.47021 4.99116 6.83624L5.5198 10.0085L17.5565 22.047ZM25.6082 25.0159L23.1683 22.5757L24.4695 20.1762C24.5915 19.9321 24.5509 19.6068 24.3476 19.4034L23.6563 18.712C23.3716 18.468 22.965 18.468 22.721 18.712L17.4752 23.9585C17.2312 24.2432 17.2312 24.6499 17.4752 24.8939L18.1665 25.5853C18.3292 25.7887 18.6952 25.87 18.9391 25.7073L21.2977 24.4466L23.7376 26.8461C23.9816 27.0901 24.3882 27.0901 24.6322 26.8461L25.5675 25.9107C25.8521 25.6667 25.8521 25.26 25.6082 25.0159ZM25.2422 10.0085L25.7708 6.83624C25.8521 6.47021 25.5268 6.14485 25.1608 6.22619L21.989 6.7549L16.3366 12.4488L19.5491 15.7024L25.2422 10.0085ZM11.2129 17.5326L9.05763 19.6881L8.04101 18.712C7.79702 18.468 7.34971 18.468 7.10572 18.712L6.41442 19.4034C6.25176 19.6068 6.17043 19.9321 6.29243 20.1762L7.5937 22.5757L5.15382 25.0159C4.90983 25.26 4.90983 25.6667 5.15382 25.9107L6.0891 26.8461C6.33309 27.0901 6.73974 27.0901 7.02439 26.8461L9.42361 24.4466L11.7822 25.7073C12.0261 25.87 12.3515 25.7887 12.5548 25.5853L13.2461 24.8939C13.4901 24.6499 13.4901 24.2025 13.2461 23.9585L12.2701 22.9824L14.4254 20.7862L11.2129 17.5326Z" fill="#540000"/>
<path d="M17.4266 21.1017L20.4473 18.0423L9.16738 6.72259L6.1849 6.22543C5.84076 6.14895 5.53487 6.45489 5.61134 6.79907L6.10842 9.78198L17.4266 21.1017ZM24.9975 23.8934L22.7033 21.5989L23.9268 19.3426C24.0416 19.1131 24.0033 18.8072 23.8121 18.616L23.1621 17.9658C22.8944 17.7364 22.5121 17.7364 22.2827 17.9658L17.3501 22.8991C17.1207 23.1668 17.1207 23.5492 17.3501 23.7787L18.0001 24.4288C18.1531 24.62 18.4972 24.6965 18.7266 24.5435L20.9444 23.358L23.2386 25.6143C23.468 25.8438 23.8504 25.8438 24.0798 25.6143L24.9592 24.7347C25.2269 24.5053 25.2269 24.1229 24.9975 23.8934ZM24.6533 9.78198L25.1504 6.79907C25.2269 6.45489 24.921 6.14895 24.5769 6.22543L21.5944 6.72259L16.2795 12.0765L19.3002 15.1359L24.6533 9.78198ZM11.4616 16.8568L9.43504 18.8837L8.47911 17.9658C8.24969 17.7364 7.82909 17.7364 7.59966 17.9658L6.94964 18.616C6.79669 18.8072 6.72021 19.1131 6.83492 19.3426L8.05851 21.5989L5.76429 23.8934C5.53487 24.1229 5.53487 24.5053 5.76429 24.7347L6.64374 25.6143C6.87316 25.8438 7.25553 25.8438 7.52319 25.6143L9.77917 23.358L11.9969 24.5435C12.2263 24.6965 12.5322 24.62 12.7234 24.4288L13.3734 23.7787C13.6029 23.5492 13.6029 23.1286 13.3734 22.8991L12.4558 21.9813L14.4823 19.9162L11.4616 16.8568Z" fill="white"/>
<path d="M48.189 1H50.6867V18.9713H48.189V11.0766H44.4978V18.9713H42V1H44.4978V8.98086H48.189V1Z" fill="white"/>
<path d="M61.5658 6.62679H59.0125V3.87081C59.0125 3.52632 58.957 3.30622 58.846 3.21053C58.7534 3.09569 58.5407 3.03828 58.2076 3.03828H56.7922C56.4592 3.03828 56.2372 3.09569 56.1261 3.21053C56.0151 3.30622 55.9596 3.52632 55.9596 3.87081V16.1292C55.9596 16.4737 56.0151 16.7034 56.1261 16.8182C56.2372 16.9139 56.4592 16.9617 56.7922 16.9617H58.2076C58.5407 16.9617 58.7534 16.9139 58.846 16.8182C58.957 16.7034 59.0125 16.4737 59.0125 16.1292V13.4019H61.5658V16.445C61.5658 18.1483 60.6962 19 58.957 19H56.0151C54.2944 19 53.4341 18.1483 53.4341 16.445V3.52632C53.4341 1.84211 54.2944 1 56.0151 1H58.957C60.6962 1 61.5658 1.84211 61.5658 3.52632V6.62679Z" fill="white"/>
<path d="M76.0386 6.25359H73.5131V3.87081C73.5131 3.52632 73.4576 3.30622 73.3466 3.21053C73.2355 3.09569 73.0135 3.03828 72.6805 3.03828H71.2651C70.932 3.03828 70.71 3.09569 70.599 3.21053C70.488 3.30622 70.4325 3.52632 70.4325 3.87081V16.1292C70.4325 16.4737 70.488 16.7034 70.599 16.8182C70.71 16.9139 70.932 16.9617 71.2651 16.9617H72.6805C73.0135 16.9617 73.2355 16.9139 73.3466 16.8182C73.4576 16.7034 73.5131 16.4737 73.5131 16.1292V11.7368H72.1254V9.72727H76.0386V16.445C76.0386 18.1483 75.1783 19 73.4576 19H70.488C68.7673 19 67.9069 18.1483 67.9069 16.445V3.52632C67.9069 1.84211 68.7673 1 70.488 1H73.4576C75.1783 1 76.0386 1.84211 76.0386 3.52632V6.25359Z" fill="white"/>
<path d="M84.3323 1H86.8578V16.445C86.8578 18.1292 85.9882 18.9713 84.249 18.9713H81.1684C79.4292 18.9713 78.5596 18.1292 78.5596 16.445V1H81.0851V16.0431C81.0851 16.3876 81.1406 16.6172 81.2517 16.7321C81.3627 16.8278 81.5847 16.8756 81.9177 16.8756H83.4997C83.8512 16.8756 84.0732 16.8278 84.1657 16.7321C84.2768 16.6172 84.3323 16.3876 84.3323 16.0431V1Z" fill="white"/>
<path d="M89.8957 1H92.3935V18.9713H89.8957V1Z" fill="white"/>
<path d="M95.5563 1H101.606C103.327 1 104.187 1.84211 104.187 3.52632V16.445C104.187 18.1292 103.327 18.9713 101.606 18.9713H95.5563V1ZM101.662 16.1005V3.87081C101.662 3.52632 101.606 3.30622 101.495 3.21053C101.384 3.09569 101.162 3.03828 100.829 3.03828H98.0818V16.933H100.829C101.162 16.933 101.384 16.8852 101.495 16.7895C101.606 16.6746 101.662 16.445 101.662 16.1005Z" fill="white"/>
<path d="M109.464 16.8756H114.487V18.9713H106.938V1H114.293V3.09569H109.464V8.63636H113.46V10.7321H109.464V16.8756Z" fill="white"/>
<path d="M121.447 16.0431V11.6507C121.447 11.3062 121.391 11.0861 121.28 10.9904C121.188 10.8756 120.975 10.8182 120.642 10.8182H118.588C116.904 10.8182 116.063 9.96651 116.063 8.26316V3.52632C116.063 1.84211 116.923 1 118.644 1H121.363C123.084 1 123.944 1.84211 123.944 3.52632V6.16746H121.419V3.92823C121.419 3.58373 121.363 3.36364 121.252 3.26794C121.141 3.15311 120.919 3.09569 120.586 3.09569H119.421C119.088 3.09569 118.866 3.15311 118.755 3.26794C118.644 3.36364 118.588 3.58373 118.588 3.92823V7.91866C118.588 8.26316 118.644 8.49282 118.755 8.60766C118.866 8.70335 119.088 8.7512 119.421 8.7512H121.447C123.149 8.7512 124 9.5933 124 11.2775V16.445C124 18.1292 123.13 18.9713 121.391 18.9713H118.699C116.978 18.9713 116.118 18.1292 116.118 16.445V13.8038H118.644V16.0431C118.644 16.3876 118.699 16.6172 118.81 16.7321C118.921 16.8278 119.143 16.8756 119.476 16.8756H120.642C120.975 16.8756 121.188 16.8278 121.28 16.7321C121.391 16.6172 121.447 16.3876 121.447 16.0431Z" fill="white"/>
<path d="M45.914 26.514H44.406V25.24C44.406 25.1013 44.38 25.0103 44.328 24.967C44.276 24.915 44.1807 24.889 44.042 24.889H43.431C43.2923 24.889 43.197 24.915 43.145 24.967C43.093 25.0103 43.067 25.1013 43.067 25.24V30.57C43.067 30.7087 43.093 30.804 43.145 30.856C43.197 30.8993 43.2923 30.921 43.431 30.921H44.042C44.1807 30.921 44.276 30.8993 44.328 30.856C44.38 30.804 44.406 30.7087 44.406 30.57V29.322H45.914V30.726C45.914 31.584 45.4417 32.013 44.497 32.013H42.976C42.0313 32.013 41.559 31.584 41.559 30.726V25.084C41.559 24.226 42.0313 23.797 42.976 23.797H44.497C45.4417 23.797 45.914 24.226 45.914 25.084V26.514ZM51.7137 30.856H53.8977V32H50.2187V23.797H51.7137V30.856ZM61.1775 32L60.8655 30.297H59.0715L58.7855 32H57.2905L58.9415 23.797H60.9565L62.6855 32H61.1775ZM59.2665 29.166H60.6575L59.9425 25.24L59.2665 29.166ZM69.2592 30.505V28.75C69.2592 28.6113 69.2332 28.5203 69.1812 28.477C69.1292 28.425 69.0338 28.399 68.8952 28.399H67.8422C66.9495 28.399 66.5032 27.9657 66.5032 27.099V25.084C66.5032 24.226 66.9712 23.797 67.9072 23.797H69.3372C70.2732 23.797 70.7412 24.226 70.7412 25.084V26.228H69.2332V25.292C69.2332 25.1533 69.2072 25.0623 69.1552 25.019C69.1032 24.967 69.0078 24.941 68.8692 24.941H68.3752C68.2278 24.941 68.1282 24.967 68.0762 25.019C68.0242 25.0623 67.9982 25.1533 67.9982 25.292V26.943C67.9982 27.0817 68.0242 27.177 68.0762 27.229C68.1282 27.2723 68.2278 27.294 68.3752 27.294H69.4022C70.3122 27.294 70.7672 27.7187 70.7672 28.568V30.713C70.7672 31.571 70.2948 32 69.3502 32H67.9462C67.0015 32 66.5292 31.571 66.5292 30.713V29.582H68.0242V30.505C68.0242 30.6437 68.0502 30.739 68.1022 30.791C68.1542 30.8343 68.2538 30.856 68.4012 30.856H68.8952C69.0338 30.856 69.1292 30.8343 69.1812 30.791C69.2332 30.739 69.2592 30.6437 69.2592 30.505ZM77.7015 30.505V28.75C77.7015 28.6113 77.6755 28.5203 77.6235 28.477C77.5715 28.425 77.4762 28.399 77.3375 28.399H76.2845C75.3919 28.399 74.9455 27.9657 74.9455 27.099V25.084C74.9455 24.226 75.4135 23.797 76.3495 23.797H77.7795C78.7155 23.797 79.1835 24.226 79.1835 25.084V26.228H77.6755V25.292C77.6755 25.1533 77.6495 25.0623 77.5975 25.019C77.5455 24.967 77.4502 24.941 77.3115 24.941H76.8175C76.6702 24.941 76.5705 24.967 76.5185 25.019C76.4665 25.0623 76.4405 25.1533 76.4405 25.292V26.943C76.4405 27.0817 76.4665 27.177 76.5185 27.229C76.5705 27.2723 76.6702 27.294 76.8175 27.294H77.8445C78.7545 27.294 79.2095 27.7187 79.2095 28.568V30.713C79.2095 31.571 78.7372 32 77.7925 32H76.3885C75.4439 32 74.9715 31.571 74.9715 30.713V29.582H76.4665V30.505C76.4665 30.6437 76.4925 30.739 76.5445 30.791C76.5965 30.8343 76.6962 30.856 76.8435 30.856H77.3375C77.4762 30.856 77.5715 30.8343 77.6235 30.791C77.6755 30.739 77.7015 30.6437 77.7015 30.505ZM83.6219 23.797H85.1169V32H83.6219V23.797ZM93.9785 26.514H92.4705V25.24C92.4705 25.1013 92.4445 25.0103 92.3925 24.967C92.3405 24.915 92.2451 24.889 92.1065 24.889H91.4955C91.3568 24.889 91.2615 24.915 91.2095 24.967C91.1575 25.0103 91.1315 25.1013 91.1315 25.24V30.57C91.1315 30.7087 91.1575 30.804 91.2095 30.856C91.2615 30.8993 91.3568 30.921 91.4955 30.921H92.1065C92.2451 30.921 92.3405 30.8993 92.3925 30.856C92.4445 30.804 92.4705 30.7087 92.4705 30.57V29.322H93.9785V30.726C93.9785 31.584 93.5061 32.013 92.5615 32.013H91.0405C90.0958 32.013 89.6235 31.584 89.6235 30.726V25.084C89.6235 24.226 90.0958 23.797 91.0405 23.797H92.5615C93.5061 23.797 93.9785 24.226 93.9785 25.084V26.514ZM105.136 30.856H107.632V32H103.628V23.797H107.528V24.941H105.136V27.216H107.151V28.373H105.136V30.856ZM113.235 28.802V32H111.74V23.797H114.756C115.701 23.797 116.173 24.226 116.173 25.084V27.515C116.173 28.2257 115.857 28.6417 115.224 28.763L116.589 32H114.977L113.729 28.802H113.235ZM113.235 24.941V27.697H114.314C114.453 27.697 114.548 27.6753 114.6 27.632C114.652 27.58 114.678 27.4847 114.678 27.346V25.292C114.678 25.1533 114.652 25.0623 114.6 25.019C114.548 24.967 114.453 24.941 114.314 24.941H113.235ZM123.943 32L123.631 30.297H121.837L121.551 32H120.056L121.707 23.797H123.722L125.451 32H123.943ZM122.032 29.166H123.423L122.708 25.24L122.032 29.166Z" fill="#797979"/>
</svg>
