<svg width="114" height="32" viewBox="0 0 114 32" fill="none" xmlns="http://www.w3.org/2000/svg">
<rect width="32" height="32" rx="1" fill="#890610"/>
<path d="M17.5565 22.047L20.7691 18.7934L8.77297 6.7549L5.60113 6.22619C5.23515 6.14485 4.90983 6.47021 4.99116 6.83624L5.5198 10.0085L17.5565 22.047ZM25.6082 25.0159L23.1683 22.5757L24.4695 20.1762C24.5915 19.9321 24.5509 19.6068 24.3476 19.4034L23.6563 18.712C23.3716 18.468 22.965 18.468 22.721 18.712L17.4752 23.9585C17.2312 24.2432 17.2312 24.6499 17.4752 24.8939L18.1665 25.5853C18.3292 25.7887 18.6952 25.87 18.9391 25.7073L21.2977 24.4466L23.7376 26.8461C23.9816 27.0901 24.3882 27.0901 24.6322 26.8461L25.5675 25.9107C25.8521 25.6667 25.8521 25.26 25.6082 25.0159ZM25.2422 10.0085L25.7708 6.83624C25.8521 6.47021 25.5268 6.14485 25.1608 6.22619L21.989 6.7549L16.3366 12.4488L19.5491 15.7024L25.2422 10.0085ZM11.2129 17.5326L9.05763 19.6881L8.04101 18.712C7.79702 18.468 7.34971 18.468 7.10572 18.712L6.41442 19.4034C6.25176 19.6068 6.17043 19.9321 6.29243 20.1762L7.5937 22.5757L5.15382 25.0159C4.90983 25.26 4.90983 25.6667 5.15382 25.9107L6.0891 26.8461C6.33309 27.0901 6.73974 27.0901 7.02439 26.8461L9.42361 24.4466L11.7822 25.7073C12.0261 25.87 12.3515 25.7887 12.5548 25.5853L13.2461 24.8939C13.4901 24.6499 13.4901 24.2025 13.2461 23.9585L12.2701 22.9824L14.4254 20.7862L11.2129 17.5326Z" fill="#540000"/>
<path d="M17.4266 21.1017L20.4473 18.0423L9.16738 6.72259L6.1849 6.22543C5.84076 6.14895 5.53487 6.45489 5.61134 6.79907L6.10842 9.78198L17.4266 21.1017ZM24.9975 23.8934L22.7033 21.5989L23.9268 19.3426C24.0416 19.1131 24.0033 18.8072 23.8121 18.616L23.1621 17.9658C22.8944 17.7364 22.5121 17.7364 22.2827 17.9658L17.3501 22.8991C17.1207 23.1668 17.1207 23.5492 17.3501 23.7787L18.0001 24.4288C18.1531 24.62 18.4972 24.6965 18.7266 24.5435L20.9444 23.358L23.2386 25.6143C23.468 25.8438 23.8504 25.8438 24.0798 25.6143L24.9592 24.7347C25.2269 24.5053 25.2269 24.1229 24.9975 23.8934ZM24.6533 9.78198L25.1504 6.79907C25.2269 6.45489 24.921 6.14895 24.5769 6.22543L21.5944 6.72259L16.2795 12.0765L19.3002 15.1359L24.6533 9.78198ZM11.4616 16.8568L9.43504 18.8837L8.47911 17.9658C8.24969 17.7364 7.82909 17.7364 7.59966 17.9658L6.94964 18.616C6.79669 18.8072 6.72021 19.1131 6.83492 19.3426L8.05851 21.5989L5.76429 23.8934C5.53487 24.1229 5.53487 24.5053 5.76429 24.7347L6.64374 25.6143C6.87316 25.8438 7.25553 25.8438 7.52319 25.6143L9.77917 23.358L11.9969 24.5435C12.2263 24.6965 12.5322 24.62 12.7234 24.4288L13.3734 23.7787C13.6029 23.5492 13.6029 23.1286 13.3734 22.8991L12.4558 21.9813L14.4823 19.9162L11.4616 16.8568Z" fill="white"/>
<path d="M51.5 12.925H49.225V10.85C49.225 10.55 49.175 10.3583 49.075 10.275C48.975 10.175 48.775 10.125 48.475 10.125H47.2C46.9 10.125 46.7 10.175 46.6 10.275C46.5 10.3583 46.45 10.55 46.45 10.85V21.525C46.45 21.825 46.5 22.025 46.6 22.125C46.7 22.2083 46.9 22.25 47.2 22.25H48.475C48.775 22.25 48.975 22.2083 49.075 22.125C49.175 22.025 49.225 21.825 49.225 21.525V17.7H47.975V15.95H51.5V21.8C51.5 23.2833 50.725 24.025 49.175 24.025H46.5C44.95 24.025 44.175 23.2833 44.175 21.8V10.55C44.175 9.08334 44.95 8.35001 46.5 8.35001H49.175C50.725 8.35001 51.5 9.08334 51.5 10.55V12.925Z" fill="white"/>
<path d="M56.0709 8.35001H58.8459C60.3959 8.35001 61.1709 9.08334 61.1709 10.55V21.8C61.1709 23.2667 60.3959 24 58.8459 24H56.0709C54.5042 24 53.7209 23.2667 53.7209 21.8V10.55C53.7209 9.08334 54.5042 8.35001 56.0709 8.35001ZM58.9209 21.45V10.9C58.9209 10.6 58.8709 10.4083 58.7709 10.325C58.6709 10.225 58.4709 10.175 58.1709 10.175H56.7209C56.4209 10.175 56.2209 10.225 56.1209 10.325C56.0376 10.4083 55.9959 10.6 55.9959 10.9V21.45C55.9959 21.75 56.0376 21.95 56.1209 22.05C56.2209 22.1333 56.4209 22.175 56.7209 22.175H58.1709C58.4709 22.175 58.6709 22.1333 58.7709 22.05C58.8709 21.95 58.9209 21.75 58.9209 21.45Z" fill="white"/>
<path d="M73.0236 24L72.3986 20.375H69.0986L68.5236 24H66.2736L69.0486 8.35001H72.3236L75.2986 24H73.0236ZM69.3736 18.55H72.0986L70.6736 10.3L69.3736 18.55Z" fill="white"/>
<path d="M84.0928 12.925H81.8178V10.85C81.8178 10.55 81.7678 10.3583 81.6678 10.275C81.5678 10.175 81.3678 10.125 81.0678 10.125H79.7928C79.4928 10.125 79.2928 10.175 79.1928 10.275C79.0928 10.3583 79.0428 10.55 79.0428 10.85V21.525C79.0428 21.825 79.0928 22.025 79.1928 22.125C79.2928 22.2083 79.4928 22.25 79.7928 22.25H81.0678C81.3678 22.25 81.5678 22.2083 81.6678 22.125C81.7678 22.025 81.8178 21.825 81.8178 21.525V17.7H80.5678V15.95H84.0928V21.8C84.0928 23.2833 83.3178 24.025 81.7678 24.025H79.0928C77.5428 24.025 76.7678 23.2833 76.7678 21.8V10.55C76.7678 9.08334 77.5428 8.35001 79.0928 8.35001H81.7678C83.3178 8.35001 84.0928 9.08334 84.0928 10.55V12.925Z" fill="white"/>
<path d="M92.1887 24L91.5637 20.375H88.2637L87.6887 24H85.4387L88.2137 8.35001H91.4887L94.4637 24H92.1887ZM88.5387 18.55H91.2637L89.8387 10.3L88.5387 18.55Z" fill="white"/>
<path d="M101.633 8.35001H103.708V24H101.433L98.1328 12.7V24H96.0578V8.35001H98.4328L101.633 19.325V8.35001Z" fill="white"/>
<path d="M108.587 22.175H113.112V24H106.312V8.35001H112.937V10.175H108.587V15H112.187V16.825H108.587V22.175Z" fill="white"/>
</svg>
