<svg width="106" height="48" viewBox="0 0 106 48" fill="none" xmlns="http://www.w3.org/2000/svg">
<path d="M7.92174 0H11.5657V19.7702H7.92174V11.342H3.80243V19.7702H0.158435V0H3.80243V8.58486H7.92174V0Z" fill="white"/>
<path d="M22.8163 19.7702L22.0558 15.6658H17.683L16.9859 19.7702H13.3419L17.3662 0H22.2777L26.492 19.7702H22.8163ZM18.1583 12.9399H21.5489L19.8061 3.47781L18.1583 12.9399Z" fill="white"/>
<path d="M31.8998 12.0627V19.7702H28.2558V0H35.6072C37.9098 0 39.0611 1.03394 39.0611 3.10183V8.96084C39.0611 10.6736 38.29 11.6762 36.7479 11.9687L40.0751 19.7702H36.1459L33.1039 12.0627H31.8998ZM31.8998 2.75718V9.39948H34.5299C34.8678 9.39948 35.1002 9.34726 35.227 9.24282C35.3537 9.11749 35.4171 8.88773 35.4171 8.55353V3.60313C35.4171 3.26893 35.3537 3.04961 35.227 2.94517C35.1002 2.81984 34.8678 2.75718 34.5299 2.75718H31.8998Z" fill="white"/>
<path d="M42.0298 0H49.6346C51.9372 0 53.0885 1.03394 53.0885 3.10183V16.6684C53.0885 18.7363 51.9372 19.7702 49.6346 19.7702H42.0298V0ZM49.4128 16.2924V3.47781C49.4128 3.1436 49.3494 2.92428 49.2227 2.81984C49.0959 2.69452 48.8636 2.63185 48.5256 2.63185H45.6738V17.1384H48.5256C48.8636 17.1384 49.0959 17.0862 49.2227 16.9817C49.3494 16.8564 49.4128 16.6266 49.4128 16.2924Z" fill="white"/>
<path d="M66.4695 6.5483H62.7939V3.47781C62.7939 3.1436 62.7305 2.92428 62.6037 2.81984C62.477 2.69452 62.2446 2.63185 61.9066 2.63185H60.4173C60.0793 2.63185 59.847 2.69452 59.7202 2.81984C59.5935 2.92428 59.5301 3.1436 59.5301 3.47781V16.3238C59.5301 16.658 59.5935 16.8877 59.7202 17.0131C59.847 17.1175 60.0793 17.1697 60.4173 17.1697H61.9066C62.2446 17.1697 62.477 17.1175 62.6037 17.0131C62.7305 16.8877 62.7939 16.658 62.7939 16.3238V13.3159H66.4695V16.6997C66.4695 18.7676 65.3183 19.8016 63.0157 19.8016H59.3083C57.0057 19.8016 55.8544 18.7676 55.8544 16.6997V3.10183C55.8544 1.03394 57.0057 0 59.3083 0H63.0157C65.3183 0 66.4695 1.03394 66.4695 3.10183V6.5483Z" fill="white"/>
<path d="M72.3675 0H76.2333C78.5359 0 79.6872 1.03394 79.6872 3.10183V16.6684C79.6872 18.7363 78.5359 19.7702 76.2333 19.7702H72.3675C70.0649 19.7702 68.9136 18.7363 68.9136 16.6684V3.10183C68.9136 1.03394 70.0649 0 72.3675 0ZM76.0432 16.1671V3.60313C76.0432 3.26893 75.9798 3.04961 75.8531 2.94517C75.7263 2.81984 75.494 2.75718 75.156 2.75718H73.4766C73.1175 2.75718 72.8745 2.81984 72.7478 2.94517C72.621 3.04961 72.5576 3.26893 72.5576 3.60313V16.1671C72.5576 16.5013 72.621 16.7311 72.7478 16.8564C72.8745 16.9608 73.1175 17.0131 73.4766 17.0131H75.156C75.494 17.0131 75.7263 16.9608 75.8531 16.8564C75.9798 16.7311 76.0432 16.5013 76.0432 16.1671Z" fill="white"/>
<path d="M86.2689 12.0627V19.7702H82.6249V0H89.9763C92.2789 0 93.4302 1.03394 93.4302 3.10183V8.96084C93.4302 10.6736 92.6591 11.6762 91.117 11.9687L94.4442 19.7702H90.515L87.473 12.0627H86.2689ZM86.2689 2.75718V9.39948H88.899C89.2369 9.39948 89.4693 9.34726 89.5961 9.24282C89.7228 9.11749 89.7862 8.88773 89.7862 8.55353V3.60313C89.7862 3.26893 89.7228 3.04961 89.5961 2.94517C89.4693 2.81984 89.2369 2.75718 88.899 2.75718H86.2689Z" fill="white"/>
<path d="M99.9161 17.0131H106V19.7702H96.2404V0H105.746V2.75718H99.9161V8.24021H104.828V11.0287H99.9161V17.0131Z" fill="white"/>
<path d="M10.6151 34.2768H6.93944V31.6762C6.93944 31.342 6.87607 31.1227 6.74932 31.0183C6.62257 30.893 6.3902 30.8303 6.05221 30.8303H4.56292C4.22493 30.8303 3.99255 30.893 3.86581 31.0183C3.73906 31.1227 3.67569 31.342 3.67569 31.6762V44.5222C3.67569 44.8564 3.73906 45.0862 3.86581 45.2115C3.99255 45.3159 4.22493 45.3681 4.56292 45.3681H6.05221C6.3902 45.3681 6.62257 45.3159 6.74932 45.2115C6.87607 45.0862 6.93944 44.8564 6.93944 44.5222V40.1358H5.35509V37.5979H10.6151V44.8982C10.6151 46.9661 9.46383 48 7.16125 48H3.45388C1.15129 48 0 46.9661 0 44.8982V31.3003C0 29.2324 1.15129 28.1984 3.45388 28.1984H7.16125C9.46383 28.1984 10.6151 29.2324 10.6151 31.3003V34.2768Z" fill="#757575"/>
<path d="M20.4386 28.1984H24.0826V44.8668C24.0826 46.9347 22.9313 47.9687 20.6287 47.9687H16.7629C14.4603 47.9687 13.309 46.9347 13.309 44.8668V28.1984H16.953V44.3655C16.953 44.6997 17.0164 44.9295 17.1431 45.0548C17.2699 45.1593 17.5022 45.2115 17.8402 45.2115H19.5197C19.8788 45.2115 20.1217 45.1593 20.2484 45.0548C20.3752 44.9295 20.4386 44.6997 20.4386 44.3655V28.1984Z" fill="#757575"/>
<path d="M27.2701 28.1984H30.9141V47.9687H27.2701V28.1984Z" fill="#757575"/>
<path d="M34.2937 28.1984H41.8986C44.2011 28.1984 45.3524 29.2324 45.3524 31.3003V44.8668C45.3524 46.9347 44.2011 47.9687 41.8986 47.9687H34.2937V28.1984ZM41.6767 44.4909V31.6762C41.6767 31.342 41.6134 31.1227 41.4866 31.0183C41.3599 30.893 41.1275 30.8303 40.7895 30.8303H37.9377V45.3368H40.7895C41.1275 45.3368 41.3599 45.2846 41.4866 45.1802C41.6134 45.0548 41.6767 44.8251 41.6767 44.4909Z" fill="#757575"/>
<path d="M51.9525 45.2115H58.0364V47.9687H48.2768V28.1984H57.7829V30.9556H51.9525V36.4386H56.8639V39.2272H51.9525V45.2115Z" fill="#757575"/>
<path d="M66.4658 44.3655V40.1358C66.4658 39.8016 66.4025 39.5822 66.2757 39.4778C66.149 39.3525 65.9166 39.2898 65.5786 39.2898H63.012C60.8361 39.2898 59.7482 38.2454 59.7482 36.1567V31.3003C59.7482 29.2324 60.8889 28.1984 63.1704 28.1984H66.656C68.9374 28.1984 70.0781 29.2324 70.0781 31.3003V34.0574H66.4025V31.8016C66.4025 31.4674 66.3391 31.248 66.2123 31.1436C66.0856 31.0183 65.8532 30.9556 65.5152 30.9556H64.3111C63.952 30.9556 63.7091 31.0183 63.5823 31.1436C63.4556 31.248 63.3922 31.4674 63.3922 31.8016V35.7807C63.3922 36.1149 63.4556 36.3446 63.5823 36.47C63.7091 36.5744 63.952 36.6266 64.3111 36.6266H66.8144C69.0325 36.6266 70.1415 37.6501 70.1415 39.6971V44.8668C70.1415 46.9347 68.9902 47.9687 66.6876 47.9687H63.2655C60.9629 47.9687 59.8116 46.9347 59.8116 44.8668V42.141H63.4556V44.3655C63.4556 44.6997 63.5189 44.9295 63.6457 45.0548C63.7724 45.1593 64.0154 45.2115 64.3745 45.2115H65.5786C65.9166 45.2115 66.149 45.1593 66.2757 45.0548C66.4025 44.9295 66.4658 44.6997 66.4658 44.3655Z" fill="#757575"/>
</svg>
